<svg xmlns="http://www.w3.org/2000/svg" xmlns:xlink="http://www.w3.org/1999/xlink" id="Layer_1" x="0" y="0" version="1.1" viewBox="0 0 800 800" xml:space="preserve" style="enable-background:new 0 0 800 800"><style type="text/css">.st0{fill:#033e63}.st1{fill:#0671b3}.st2{fill:#a00000}.st3{fill:#06629b}.st4{fill:#a06800}.st5{fill:#ff2f52}.st6{fill:none}.st7{fill:#022d47}.st8{font-family:&apos;BerlinSansFBDemi-Bold&apos;}.st9{font-size:72px}.st10{fill:#fff}.st11{font-family:&apos;CourierNewPSMT&apos;}.st12{font-size:48px}.st13{font-size:21px}</style><path d="M588.8,206.1h-400v0c0-33.1,26.9-60,60-60h280C561.9,146.1,588.8,172.9,588.8,206.1L588.8,206.1z" class="st0"/><rect width="400" height="200" x="188.8" y="206.1" class="st1"/><path d="M528.8,466.1h-280c-33.1,0-60-26.9-60-60v0h400v0C588.8,439.2,561.9,466.1,528.8,466.1z" class="st1"/><circle cx="533.3" cy="176.1" r="10.7" class="st2"/><circle cx="499.8" cy="176.1" r="10.7" class="st3"/><circle cx="468.3" cy="176.1" r="10.7" class="st4"/><rect width="300" height="160" x="238.8" y="246.2" class="st5"/><rect width="300" height="68.1" x="238.8" y="263.3" class="st6"/><text class="st7 st8 st9" transform="matrix(1 0 0 1 293.2031 314.0947)">X __ X</text><rect width="300" height="35.4" x="238.8" y="340.9" class="st6"/><text class="st10 st11 st12" transform="matrix(1 0 0 1 316.7461 370.3637)">ERROR</text><rect width="300" height="17.4" x="238.8" y="382.6" class="st6"/><text class="st10 st11 st13" transform="matrix(1 0 0 1 287.9417 395.463)">CTRL + SHIFT + I</text></svg>